<svg aria-hidden="true" style="position: absolute; width: 0; height: 0; overflow: hidden;" version="1.1" xmlns="http://www.w3.org/2000/svg" xmlns:xlink="http://www.w3.org/1999/xlink">
<defs>
<symbol id="icon-alarm" viewBox="0 0 64 32">
<title>alarm</title>
<path d="M6.575 2.033c-0.339-0.791-0.973-1.425-1.763-1.763 0.214-0.168 0.483-0.27 0.776-0.27 0.694 0 1.256 0.563 1.256 1.256 0 0.293-0.101 0.562-0.27 0.776zM6.524 3.422c0 0.824-0.323 1.571-0.848 2.126l0.434 0.434c0.057 0.058 0.093 0.137 0.093 0.224 0 0.175-0.142 0.317-0.317 0.317-0.088 0-0.167-0.035-0.224-0.093l-0.466-0.466c-0.503 0.351-1.113 0.559-1.773 0.559-0.659 0-1.268-0.207-1.77-0.557l-0.463 0.463c-0.058 0.058-0.138 0.094-0.227 0.094-0.177 0-0.321-0.144-0.321-0.321 0-0.088 0.036-0.169 0.094-0.227l0.43-0.43c-0.523-0.555-0.845-1.301-0.845-2.123 0-1.713 1.389-3.102 3.102-3.102s3.102 1.389 3.102 3.102zM3.422 0.963c-1.359 0-2.46 1.101-2.46 2.46s1.101 2.46 2.46 2.46 2.46-1.101 2.46-2.46c0-1.359-1.101-2.46-2.46-2.46zM4.706 3.743h-1.283c-0.177 0-0.321-0.144-0.321-0.321v-1.711c0-0.177 0.144-0.321 0.321-0.321s0.321 0.144 0.321 0.321v1.39h0.963c0.177 0 0.321 0.144 0.321 0.321s-0.144 0.321-0.321 0.321zM0.275 2.076c-0.172-0.218-0.275-0.493-0.275-0.792 0-0.709 0.575-1.283 1.283-1.283 0.299 0 0.574 0.103 0.793 0.275-0.808 0.346-1.455 0.993-1.801 1.801z"></path>
</symbol>
<symbol id="icon-book" viewBox="0 0 64 32">
<title>book</title>
<path d="M6.645 5.538l-3.095 1.281c-0.039 0.017-0.082 0.026-0.127 0.026s-0.088-0.009-0.127-0.026l-3.095-1.281c-0.117-0.048-0.2-0.163-0.2-0.297v-4.92c0-0.177 0.144-0.321 0.321-0.321 0.043 0 0.085 0.009 0.123 0.024h0l0 0c0.001 0 0.002 0.001 0.003 0.001l2.976 1.231 2.976-1.231c0.001-0 0.002-0.001 0.003-0.001l0.001-0c0.038-0.016 0.079-0.024 0.123-0.024 0.177 0 0.321 0.144 0.321 0.321v4.92c0 0.134-0.083 0.249-0.2 0.297zM3.102 1.819l-2.46-1.018v4.225l2.46 1.018v-4.225zM6.203 0.801l-2.46 1.018v4.225l2.46-1.018v-4.225zM4.252 2.275l1.176-0.535c0.040-0.018 0.085-0.029 0.133-0.029 0.177 0 0.321 0.144 0.321 0.321 0 0.13-0.077 0.241-0.188 0.292v0l-1.176 0.535c-0.041 0.019-0.086 0.029-0.133 0.029-0.177 0-0.321-0.144-0.321-0.321 0-0.13 0.077-0.242 0.188-0.292zM4.252 3.451v0l1.176-0.535c0.040-0.018 0.085-0.029 0.133-0.029 0.177 0 0.321 0.144 0.321 0.321 0 0.13-0.077 0.242-0.188 0.292l-1.176 0.535c-0.041 0.018-0.086 0.029-0.133 0.029-0.177 0-0.321-0.144-0.321-0.321 0-0.13 0.077-0.242 0.188-0.292zM4.252 4.628v0l1.176-0.535c0.040-0.018 0.085-0.029 0.133-0.029 0.177 0 0.321 0.144 0.321 0.321 0 0.13-0.077 0.242-0.188 0.292v0l-1.176 0.535c-0.041 0.019-0.086 0.029-0.133 0.029-0.177 0-0.321-0.144-0.321-0.321 0-0.13 0.077-0.242 0.188-0.292zM1.283 1.711c0.047 0 0.092 0.010 0.133 0.029v0l1.176 0.535c0.111 0.050 0.188 0.162 0.188 0.292 0 0.177-0.144 0.321-0.321 0.321-0.047 0-0.092-0.010-0.133-0.029v0l-1.176-0.535c-0.111-0.050-0.188-0.162-0.188-0.292 0-0.177 0.144-0.321 0.321-0.321zM1.283 2.888c0.047 0 0.092 0.010 0.133 0.029v0l1.176 0.535c0.111 0.050 0.188 0.162 0.188 0.292 0 0.177-0.144 0.321-0.321 0.321-0.047 0-0.092-0.010-0.133-0.029v0l-1.176-0.535c-0.111-0.050-0.188-0.162-0.188-0.292 0-0.177 0.144-0.321 0.321-0.321zM1.283 4.064c0.047 0 0.092 0.010 0.133 0.029v0l1.176 0.535c0.111 0.050 0.188 0.162 0.188 0.292 0 0.177-0.144 0.321-0.321 0.321-0.047 0-0.092-0.010-0.133-0.029v0l-1.176-0.535c-0.111-0.050-0.188-0.162-0.188-0.292 0-0.177 0.144-0.321 0.321-0.321z"></path>
</symbol>
<symbol id="icon-comp" viewBox="0 0 64 32">
<title>comp</title>
<path d="M6.417 4.92h-2.032v0.535l0.428 0.428v0.107h-2.781v-0.107l0.428-0.428v-0.535h-2.032c-0.177 0-0.321-0.144-0.321-0.321v-4.278c0-0.177 0.144-0.321 0.321-0.321h5.989c0.177 0 0.321 0.144 0.321 0.321v4.278c0 0.177-0.144 0.321-0.321 0.321zM6.31 0.428h-5.775v3.636h5.775v-3.636zM2.781 1.925c0.089 0 0.169 0.036 0.227 0.094v0l0.201 0.201 0.629-0.629c0.058-0.058 0.138-0.094 0.227-0.094 0.177 0 0.321 0.144 0.321 0.321 0 0.089-0.036 0.169-0.094 0.227v0l-0.856 0.856c-0.058 0.058-0.138 0.094-0.227 0.094s-0.169-0.036-0.227-0.094v0l-0.428-0.428c-0.058-0.058-0.094-0.138-0.094-0.227 0-0.177 0.144-0.321 0.321-0.321z"></path>
</symbol>
<symbol id="icon-fb" viewBox="0 0 64 32">
<title>fb</title>
<path d="M2.586 0.043c0 0.316 0 0.881 0 0.881s-0.65-0.065-0.812 0.184c-0.089 0.136-0.036 0.535-0.044 0.821 0.284 0 0.578 0 0.862 0-0.073 0.335-0.125 0.561-0.179 0.851-0.245 0-0.688 0-0.688 0v2.739c0 0-0.812 0-1.194 0 0-0.844-0-1.829 0-2.728-0.185 0-0.323 0-0.508 0 0-0.316 0-0.546 0-0.862 0.18 0 0.322 0 0.502 0 0.026-0.63 0.035-1.254 0.348-1.572 0.352-0.357 0.687-0.314 1.712-0.314z"></path>
</symbol>
<symbol id="icon-glass" viewBox="0 0 64 32">
<title>glass</title>
<path d="M3.704 3.205c0.064 0.064 0.103 0.152 0.103 0.25 0 0.195-0.158 0.353-0.353 0.353-0.098 0-0.186-0.040-0.25-0.104v0l-1.034-1.034c-0.21 0.124-0.454 0.197-0.716 0.197-0.78 0-1.412-0.632-1.412-1.412s0.632-1.412 1.412-1.412c0.78 0 1.412 0.632 1.412 1.412 0 0.262-0.072 0.506-0.197 0.716l1.034 1.034zM1.455 0.396c-0.585 0-1.059 0.474-1.059 1.059s0.474 1.059 1.059 1.059c0.585 0 1.059-0.474 1.059-1.059s-0.474-1.059-1.059-1.059z"></path>
</symbol>
<symbol id="icon-home" viewBox="0 0 64 32">
<title>home</title>
<path d="M6.845 3.529c0 0.177-0.144 0.321-0.321 0.321-0.085 0-0.161-0.033-0.218-0.087l-0.001 0.001-2.883-2.883-2.876 2.876c-0.058 0.057-0.138 0.092-0.225 0.092-0.177 0-0.321-0.144-0.321-0.321 0-0.091 0.038-0.173 0.099-0.231l3.093-3.093c0.058-0.061 0.14-0.098 0.231-0.098v0 0c0 0 0 0 0 0 0.006 0 0.011 0 0.017 0 0.001 0 0.002 0 0.003 0 0.005 0 0.010 0.001 0.015 0.001 0 0 0 0 0.001 0 0.079 0.009 0.148 0.045 0.2 0.1l0-0 1.262 1.262v-0.295c0-0.177 0.144-0.321 0.321-0.321s0.321 0.144 0.321 0.321v0.936l1.197 1.197-0.001 0.001c0.053 0.057 0.087 0.134 0.087 0.218zM6.203 4.064v2.246c0 0.177-0.144 0.321-0.321 0.321h-0.642v-2.567h-1.283v2.567h-2.995c-0.177 0-0.321-0.144-0.321-0.321v-2.246l2.781-2.781 2.781 2.781zM2.888 4.064h-1.283v1.283h1.283v-1.283z"></path>
</symbol>
<symbol id="icon-img" viewBox="0 0 64 32">
<title>img</title>
<path d="M6.524 6.845h-6.203c-0.177 0-0.321-0.144-0.321-0.321v-6.203c0-0.177 0.144-0.321 0.321-0.321h6.203c0.177 0 0.321 0.144 0.321 0.321v6.203c0 0.177-0.144 0.321-0.321 0.321zM6.203 0.642h-5.561v5.561h5.561v-5.561zM1.39 0.963h1.176c0.177 0 0.321 0.144 0.321 0.321s-0.144 0.321-0.321 0.321v0h-0.963v0.963c0 0.177-0.144 0.321-0.321 0.321s-0.321-0.144-0.321-0.321v0-1.604h0.428zM0.963 4.278v0c0-0.177 0.144-0.321 0.321-0.321s0.321 0.144 0.321 0.321v0 0.962l0.963 0c0.177 0 0.321 0.144 0.321 0.321s-0.144 0.321-0.321 0.321v0h-1.604v-1.604zM4.278 0.963v0h1.604v1.604c0 0.177-0.144 0.321-0.321 0.321s-0.321-0.144-0.321-0.321v0-0.963h-0.963c-0.177 0-0.321-0.144-0.321-0.321s0.144-0.321 0.321-0.321zM4.278 5.241v-0h0.963v-0.962c0-0.177 0.144-0.321 0.321-0.321s0.321 0.144 0.321 0.321v0 1.604h-1.604c-0.177 0-0.321-0.144-0.321-0.321s0.144-0.321 0.321-0.321z"></path>
</symbol>
<symbol id="icon-inst" viewBox="0 0 64 32">
<title>inst</title>
<path d="M4.856 5.519h-4.107c-0.378 0-0.684-0.307-0.684-0.685v-4.107c0-0.378 0.307-0.685 0.684-0.685h4.107c0.378 0 0.684 0.307 0.684 0.685v4.107c0 0.378-0.307 0.685-0.684 0.685zM2.802 1.72c-0.427 0-0.794 0.253-0.962 0.616h-0.001c-0.002 0.004-0.003 0.008-0.005 0.012-0.010 0.022-0.019 0.046-0.027 0.069-0.004 0.011-0.009 0.022-0.012 0.033-0.008 0.024-0.014 0.048-0.020 0.073-0.003 0.011-0.006 0.023-0.009 0.034-0.006 0.026-0.009 0.052-0.013 0.079-0.002 0.011-0.004 0.021-0.005 0.032-0.004 0.037-0.006 0.075-0.006 0.114 0 0.586 0.475 1.061 1.061 1.061s1.061-0.475 1.061-1.061c0-0.038-0.002-0.076-0.006-0.114-0.001-0.011-0.003-0.021-0.005-0.032-0.004-0.027-0.007-0.053-0.013-0.079-0.003-0.012-0.006-0.023-0.009-0.034-0.006-0.025-0.012-0.049-0.020-0.073-0.004-0.011-0.008-0.022-0.012-0.033-0.009-0.023-0.017-0.046-0.027-0.069-0.002-0.004-0.003-0.008-0.005-0.012h-0.001c-0.168-0.363-0.535-0.616-0.962-0.616zM4.924 0.932c0-0.151-0.123-0.274-0.274-0.274h-0.548c-0.151 0-0.274 0.122-0.274 0.274v0.548c0 0.151 0.123 0.274 0.274 0.274h0.548c0.151 0 0.274-0.123 0.274-0.274v-0.548zM4.924 2.336h-0.505c0.039 0.142 0.060 0.291 0.060 0.445 0 0.926-0.751 1.677-1.677 1.677s-1.677-0.751-1.677-1.677c0-0.154 0.021-0.303 0.060-0.445h-0.505v2.293c0 0.151 0.123 0.274 0.274 0.274h3.696c0.151 0 0.274-0.123 0.274-0.274v-2.293z"></path>
</symbol>
<symbol id="icon-line-graph" viewBox="0 0 64 32">
<title>line-graph</title>
<path d="M6.524 6.845h-6.203c-0.177 0-0.321-0.144-0.321-0.321v-6.203c0-0.177 0.144-0.321 0.321-0.321h6.203c0.177 0 0.321 0.144 0.321 0.321v6.203c0 0.177-0.144 0.321-0.321 0.321zM6.203 0.642h-5.561v5.561h5.561v-5.561zM1.115 3.474v-0l0.856-0.534c0.049-0.030 0.106-0.047 0.168-0.047 0.067 0 0.128 0.020 0.18 0.055l0.001-0.002 1.418 0.945 1.634-1.153c0.053-0.039 0.119-0.062 0.189-0.062 0.177 0 0.321 0.144 0.321 0.321 0 0.107-0.052 0.202-0.133 0.26h0l-1.818 1.283c-0.053 0.038-0.118 0.061-0.188 0.061-0.069 0-0.132-0.022-0.184-0.058l-1.424-0.949-0.671 0.419c-0.052 0.035-0.114 0.056-0.181 0.056-0.177 0-0.321-0.144-0.321-0.321 0-0.116 0.061-0.217 0.153-0.273z"></path>
</symbol>
<symbol id="icon-pint" viewBox="0 0 64 32">
<title>pint</title>
<path d="M1.936 3.605c-0.045 0.178-0.090 0.365-0.136 0.548-0.046 0.18-0.087 0.363-0.154 0.528-0.111 0.274-0.252 0.539-0.437 0.753-0.123 0.143-0.097 0.086-0.134 0.078-0.028-0.006-0.031-0.034-0.036-0.074-0.030-0.218-0.010-0.47 0.002-0.714 0.013-0.279 0.071-0.511 0.126-0.742 0.104-0.442 0.202-0.874 0.307-1.318 0.007-0.030 0.026-0.078 0.019-0.095-0.048-0.123-0.078-0.234-0.092-0.364-0.016-0.149-0.004-0.288 0.030-0.416 0.059-0.226 0.195-0.427 0.405-0.5 0.133-0.046 0.281-0.025 0.371 0.028 0.092 0.055 0.156 0.143 0.185 0.267 0.032 0.132 0.008 0.289-0.017 0.405-0.057 0.261-0.132 0.456-0.2 0.708-0.034 0.125-0.072 0.253-0.040 0.388 0.029 0.124 0.093 0.209 0.181 0.273 0.091 0.066 0.199 0.102 0.348 0.097 0.263-0.009 0.445-0.177 0.567-0.335 0.195-0.253 0.313-0.595 0.358-1.002 0.014-0.131 0.025-0.282 0.015-0.431-0.019-0.275-0.105-0.496-0.241-0.667-0.13-0.163-0.314-0.293-0.537-0.366-0.222-0.072-0.529-0.096-0.801-0.050-0.496 0.085-0.845 0.367-1.051 0.756-0.108 0.204-0.179 0.438-0.179 0.729 0 0.225 0.055 0.399 0.145 0.535 0.028 0.043 0.070 0.079 0.098 0.128 0.040 0.070-0.006 0.173-0.025 0.249-0.024 0.091-0.026 0.216-0.132 0.219-0.044 0.001-0.099-0.031-0.136-0.052-0.279-0.154-0.449-0.435-0.518-0.799-0.042-0.221-0.042-0.479 0-0.693 0.041-0.207 0.116-0.397 0.2-0.552 0.174-0.322 0.429-0.579 0.74-0.762 0.239-0.141 0.508-0.24 0.836-0.288 0.109-0.016 0.221-0.022 0.343-0.028 0.357-0.017 0.681 0.064 0.925 0.173 0.258 0.115 0.464 0.269 0.637 0.459 0.179 0.196 0.31 0.423 0.392 0.708 0.043 0.148 0.085 0.306 0.085 0.489s-0.039 0.345-0.066 0.507c-0.101 0.605-0.389 1.1-0.821 1.381-0.105 0.068-0.231 0.131-0.375 0.173-0.143 0.042-0.305 0.073-0.48 0.061-0.169-0.012-0.308-0.058-0.424-0.123s-0.213-0.145-0.281-0.266z"></path>
</symbol>
<symbol id="icon-shopping-cart" viewBox="0 0 64 32">
<title>shopping-cart</title>
<path d="M3.792 0.784h0l-0.529 1.176c-0.026 0.058-0.083 0.099-0.149 0.104v0l-1.525 0.102 0.088 0.252h1.66c0.195 0 0.353 0.158 0.353 0.353s-0.158 0.353-0.353 0.353-0.353-0.158-0.353-0.353h-1.647c0 0.195-0.158 0.353-0.353 0.353s-0.353-0.158-0.353-0.353c0-0.195 0.158-0.353 0.353-0.353h0.319l-0.679-1.941h-0.404c-0.098 0-0.176-0.079-0.176-0.176s0.079-0.176 0.176-0.176h0.529c0.077 0 0.142 0.050 0.166 0.118l0.001-0 0.103 0.294h2.613c0.098 0 0.176 0.079 0.176 0.176 0 0.026-0.006 0.050-0.016 0.072zM1.142 0.888l0.326 0.932 1.516-0.101 0.374-0.831h-2.216z"></path>
</symbol>
<symbol id="icon-tw" viewBox="0 0 64 32">
<title>tw</title>
<path d="M3.746 0.129c0.435-0.008 0.667 0.151 0.888 0.352 0.188-0.016 0.432-0.121 0.576-0.194 0.046-0.025 0.093-0.051 0.14-0.076-0.082 0.222-0.193 0.396-0.364 0.527-0.038 0.029-0.076 0.069-0.123 0.087 0 0.001 0 0.002 0 0.003 0.244-0.002 0.445-0.113 0.636-0.172 0 0.001 0 0.002 0 0.003-0.1 0.159-0.236 0.321-0.381 0.437-0.058 0.046-0.117 0.093-0.175 0.139 0.003 0.258-0.004 0.505-0.052 0.722-0.281 1.261-1.024 2.117-2.201 2.484-0.423 0.132-1.105 0.186-1.59 0.065-0.24-0.059-0.457-0.127-0.66-0.216-0.113-0.049-0.218-0.103-0.318-0.164-0.033-0.020-0.066-0.040-0.099-0.060 0.109 0.003 0.237 0.033 0.359 0.013 0.111-0.018 0.219-0.013 0.321-0.035 0.254-0.056 0.48-0.13 0.674-0.243 0.094-0.055 0.237-0.12 0.304-0.199-0.126 0.002-0.241-0.027-0.334-0.060-0.363-0.128-0.575-0.364-0.713-0.719 0.11 0.012 0.427 0.041 0.502-0.022-0.139-0.008-0.272-0.088-0.367-0.148-0.292-0.183-0.531-0.49-0.529-0.962 0.038 0.018 0.077 0.036 0.115 0.055 0.074 0.031 0.148 0.048 0.236 0.066 0.037 0.008 0.111 0.029 0.154 0.013-0.002 0-0.004 0-0.006 0-0.056-0.066-0.149-0.11-0.206-0.18-0.188-0.233-0.363-0.592-0.252-1.019 0.028-0.108 0.073-0.204 0.121-0.292 0.002 0.001 0.004 0.002 0.006 0.003 0.022 0.046 0.071 0.079 0.101 0.118 0.096 0.119 0.214 0.225 0.334 0.32 0.41 0.321 0.78 0.518 1.373 0.664 0.151 0.037 0.325 0.065 0.504 0.066-0.050-0.147-0.034-0.385 0.005-0.527 0.1-0.358 0.317-0.616 0.636-0.754 0.076-0.033 0.161-0.057 0.249-0.077 0.046-0.005 0.091-0.011 0.137-0.016z"></path>
</symbol>
<symbol id="icon-wink" viewBox="0 0 32 32">
<title>wink</title>
<path d="M16 32c8.837 0 16-7.163 16-16s-7.163-16-16-16-16 7.163-16 16 7.163 16 16 16zM16 3c7.18 0 13 5.82 13 13s-5.82 13-13 13-13-5.82-13-13 5.82-13 13-13zM16.961 22.22c4.383-0.866 7.785-2.861 9.014-5.519-0.677 5.249-5.047 9.299-10.339 9.299-3.726 0-6.996-2.009-8.84-5.030 2.2 1.721 6.079 2.056 10.165 1.249zM20 11c0-1.657 0.895-3 2-3s2 1.343 2 3c0 1.657-0.895 3-2 3s-2-1.343-2-3zM11 11.609c-1.306 0-2.417 0.489-2.829 1.172-0.111-0.183-0.171-1.005-0.171-1.211 0-0.971 1.343-1.758 3-1.758s3 0.787 3 1.758c0 0.206-0.061 1.028-0.171 1.211-0.412-0.683-1.522-1.172-2.829-1.172z"></path>
</symbol>
<symbol id="icon-wink2" viewBox="0 0 32 32">
<title>wink2</title>
<path d="M16 0c-8.837 0-16 7.163-16 16s7.163 16 16 16c8.837 0 16-7.163 16-16s-7.163-16-16-16zM22 8c1.105 0 2 1.343 2 3s-0.895 3-2 3-2-1.343-2-3 0.895-3 2-3zM11 9.752c1.864 0 3.188 0.698 3.188 1.79 0 0.231 0.119 1.344-0.005 1.55-0.463-0.768-1.713-1.318-3.182-1.318s-2.719 0.55-3.182 1.318c-0.124-0.206-0.005-1.319-0.005-1.55 0-1.092 1.324-1.79 3.187-1.79zM15.636 26c-3.726 0-6.996-2.009-8.84-5.030 2.2 1.721 6.079 2.057 10.165 1.249 4.383-0.866 7.785-2.861 9.014-5.519-0.677 5.249-5.047 9.299-10.339 9.299z"></path>
</symbol>
<symbol id="icon-github" viewBox="0 0 32 32">
<title>github</title>
<path d="M16 0.395c-8.836 0-16 7.163-16 16 0 7.069 4.585 13.067 10.942 15.182 0.8 0.148 1.094-0.347 1.094-0.77 0-0.381-0.015-1.642-0.022-2.979-4.452 0.968-5.391-1.888-5.391-1.888-0.728-1.849-1.776-2.341-1.776-2.341-1.452-0.993 0.11-0.973 0.11-0.973 1.606 0.113 2.452 1.649 2.452 1.649 1.427 2.446 3.743 1.739 4.656 1.33 0.143-1.034 0.558-1.74 1.016-2.14-3.554-0.404-7.29-1.777-7.29-7.907 0-1.747 0.625-3.174 1.649-4.295-0.166-0.403-0.714-2.030 0.155-4.234 0 0 1.344-0.43 4.401 1.64 1.276-0.355 2.645-0.532 4.005-0.539 1.359 0.006 2.729 0.184 4.008 0.539 3.054-2.070 4.395-1.64 4.395-1.64 0.871 2.204 0.323 3.831 0.157 4.234 1.026 1.12 1.647 2.548 1.647 4.295 0 6.145-3.743 7.498-7.306 7.895 0.574 0.497 1.085 1.47 1.085 2.963 0 2.141-0.019 3.864-0.019 4.391 0 0.426 0.288 0.925 1.099 0.768 6.354-2.118 10.933-8.113 10.933-15.18 0-8.837-7.164-16-16-16z"></path>
</symbol>
<symbol id="icon-tux" viewBox="0 0 32 32">
<title>tux</title>
<path d="M17.739 23.029c-2.561 1.191-4.942 1.179-6.542 1.063-1.908-0.138-3.442-0.66-4.117-1.117-0.416-0.281-0.981-0.173-1.262 0.243s-0.173 0.981 0.243 1.262c1.084 0.734 3.002 1.28 5.005 1.424 0.34 0.024 0.712 0.040 1.114 0.040 1.743 0 3.957-0.166 6.326-1.268 0.455-0.212 0.652-0.752 0.441-1.207s-0.752-0.652-1.208-0.441zM27.842 21.682c0.087-7.896 0.899-22.819-14.218-21.613-14.925 1.201-10.968 16.968-11.19 22.248-0.197 2.793-1.124 6.208-2.434 9.683h4.034c0.415-1.473 0.72-2.929 0.851-4.317 0.243 0.17 0.503 0.334 0.781 0.491 0.452 0.266 0.84 0.62 1.251 0.995 0.961 0.876 2.050 1.868 4.179 1.992 0.143 0.008 0.287 0.012 0.427 0.012 2.153 0 3.625-0.942 4.809-1.699 0.567-0.363 1.057-0.676 1.518-0.827 1.31-0.41 2.454-1.072 3.309-1.914 0.134-0.131 0.258-0.267 0.374-0.405 0.476 1.746 1.129 3.711 1.853 5.672h8.614c-2.068-3.195-4.201-6.324-4.158-10.318zM3.878 17.386c0-0 0-0.001-0-0.001-0.148-2.577 1.085-4.745 2.754-4.842s3.142 1.913 3.291 4.49c0 0 0 0.001 0 0.001 0.008 0.139 0.011 0.276 0.012 0.413-0.529 0.133-1.006 0.326-1.434 0.551-0.002-0.019-0.003-0.038-0.005-0.057 0-0 0-0.001 0-0.001-0.143-1.463-0.924-2.567-1.745-2.467s-1.371 1.367-1.228 2.83c0 0 0 0.001 0 0.001 0.062 0.638 0.246 1.207 0.501 1.639-0.064 0.050-0.243 0.182-0.45 0.333-0.155 0.114-0.344 0.252-0.572 0.42-0.621-0.815-1.047-1.987-1.123-3.309zM20.789 23.756c-0.059 1.362-1.841 2.643-3.487 3.158l-0.009 0.003c-0.684 0.222-1.295 0.613-1.941 1.026-1.085 0.695-2.208 1.413-3.829 1.413-0.106 0-0.215-0.003-0.323-0.009-1.485-0.087-2.179-0.72-3.059-1.521-0.464-0.423-0.943-0.86-1.562-1.223l-0.013-0.008c-1.335-0.753-2.163-1.69-2.216-2.506-0.026-0.406 0.154-0.757 0.537-1.044 0.832-0.624 1.39-1.032 1.759-1.302 0.41-0.3 0.533-0.39 0.625-0.477 0.066-0.062 0.136-0.131 0.213-0.205 0.764-0.743 2.043-1.986 4.005-1.986 1.2 0 2.528 0.462 3.943 1.372 0.666 0.434 1.246 0.634 1.981 0.887 0.505 0.174 1.077 0.372 1.843 0.7l0.012 0.005c0.715 0.294 1.559 0.83 1.521 1.717zM20.395 20.556c-0.137-0.069-0.28-0.135-0.43-0.196-0.691-0.296-1.245-0.496-1.704-0.656 0.254-0.497 0.411-1.116 0.426-1.789 0-0 0-0.001 0-0.001 0.035-1.637-0.79-2.966-1.844-2.968s-1.936 1.322-1.971 2.959c0 0 0 0.001 0 0.001-0.001 0.054-0.001 0.107-0.001 0.16-0.649-0.299-1.287-0.515-1.911-0.649-0.003-0.061-0.006-0.123-0.008-0.185 0-0 0-0.001 0-0.002-0.061-2.982 1.769-5.45 4.086-5.513s4.245 2.303 4.305 5.285c0 0.001 0 0.001 0 0.002 0.027 1.348-0.333 2.59-0.949 3.552z"></path>
</symbol>
<symbol id="icon-appleinc" viewBox="0 0 32 32">
<title>appleinc</title>
<path d="M24.734 17.003c-0.040-4.053 3.305-5.996 3.454-6.093-1.88-2.751-4.808-3.127-5.851-3.171-2.492-0.252-4.862 1.467-6.127 1.467-1.261 0-3.213-1.43-5.28-1.392-2.716 0.040-5.221 1.579-6.619 4.012-2.822 4.897-0.723 12.151 2.028 16.123 1.344 1.944 2.947 4.127 5.051 4.049 2.026-0.081 2.793-1.311 5.242-1.311s3.138 1.311 5.283 1.271c2.18-0.041 3.562-1.981 4.897-3.931 1.543-2.255 2.179-4.439 2.216-4.551-0.048-0.022-4.252-1.632-4.294-6.473zM20.705 5.11c1.117-1.355 1.871-3.235 1.665-5.11-1.609 0.066-3.559 1.072-4.713 2.423-1.036 1.199-1.942 3.113-1.699 4.951 1.796 0.14 3.629-0.913 4.747-2.264z"></path>
</symbol>
</defs>
</svg>
